<svg width="199" height="84" viewBox="0 0 199 84" fill="none" xmlns="http://www.w3.org/2000/svg">
<path d="M124.622 47.0077L133.763 53.7654C133.763 53.7654 124.963 66.7962 107.419 65.8808C89.8753 64.9654 84.6519 59.1231 80.5357 53.7654C80.5357 53.7654 70.8837 42 79.9963 28.1346C79.9963 28.1346 85.2481 21.7 94.531 21.0269C94.531 21.0269 87.9166 29.2654 90.585 35.7538L120.506 22.4269C120.506 22.4269 113.636 10.4192 94.7013 12.7346C94.7013 12.7346 83.3745 14.4577 75 22.0769C75 22.0769 76.9588 11.4692 92.5438 3.36538C92.5438 3.36538 105.063 -3.74232 122.663 3.20384C122.663 3.20384 133.281 7.83461 138.618 19.1423C138.618 19.1423 142.535 29.0769 141.485 33.4923L95.6097 45.0961C95.6097 45.0961 100.861 51.4769 108.157 50.8038C108.157 50.8038 115.311 52.0154 124.622 47.0077Z" fill="#DF0907"/>
<path d="M26.0395 80.56L26.8495 80.66C26.8762 80.76 26.8762 80.8833 26.8495 81.03C26.4295 81.01 26.0762 81 25.7895 81C25.6295 81 25.2695 81.0067 24.7095 81.02C24.6695 80.9 24.6695 80.78 24.7095 80.66L25.3695 80.54C25.4762 80.38 25.6095 80.0833 25.7695 79.65L28.3495 72.75H28.6995L31.5995 80.56L32.4095 80.66C32.4362 80.76 32.4362 80.8833 32.4095 81.03C31.9895 81.01 31.5195 81 30.9995 81C30.6129 81 30.1395 81.0067 29.5795 81.02C29.5395 80.9 29.5395 80.78 29.5795 80.66L30.4095 80.54L29.5295 78.07H26.9295L26.0395 80.56ZM28.2595 74.26H28.2495C28.1695 74.5733 28.0395 74.9833 27.8595 75.49L27.1095 77.57H29.3495L28.6195 75.49C28.4795 75.0833 28.3595 74.6733 28.2595 74.26ZM35.3119 81L33.8819 81.03C33.8419 80.91 33.8419 80.79 33.8819 80.67L34.7119 80.56C34.7385 80.22 34.7519 79.8267 34.7519 79.38V73.48L33.9419 73.38C33.9152 73.28 33.9152 73.1567 33.9419 73.01C34.3085 73.0367 34.7652 73.05 35.3119 73.05C35.7985 73.05 36.2585 73.04 36.6919 73.02C36.7319 73.14 36.7319 73.26 36.6919 73.38L35.8619 73.5C35.8352 73.7533 35.8219 74.1433 35.8219 74.67V80.49H39.1219L39.5919 78.68C39.6919 78.6533 39.8152 78.6533 39.9619 78.68L39.9519 81H35.3119ZM43.299 81L41.869 81.03C41.829 80.91 41.829 80.79 41.869 80.67L42.699 80.56C42.7257 80.22 42.739 79.8267 42.739 79.38V73.48L41.929 73.38C41.9023 73.28 41.9023 73.1567 41.929 73.01C42.2957 73.0367 42.7523 73.05 43.299 73.05C43.7857 73.05 44.2457 73.04 44.679 73.02C44.719 73.14 44.719 73.26 44.679 73.38L43.849 73.5C43.8223 73.7533 43.809 74.1433 43.809 74.67V80.49H47.109L47.579 78.68C47.679 78.6533 47.8023 78.6533 47.949 78.68L47.939 81H43.299ZM60.937 79.54H60.957C61.0237 79.2667 61.1837 78.7133 61.437 77.88L62.827 73.48L62.017 73.38V73.01C62.3837 73.0367 62.737 73.05 63.077 73.05C63.3704 73.05 63.7304 73.04 64.157 73.02V73.38L63.497 73.5C63.3904 73.66 63.257 73.9567 63.097 74.39L60.827 81.3H60.567L58.647 75.7L56.547 81.31L56.277 81.3L53.687 73.48L52.877 73.38C52.8504 73.28 52.8504 73.1567 52.877 73.01C53.2437 73.0367 53.7204 73.05 54.307 73.05C54.847 73.05 55.3304 73.04 55.757 73.02C55.797 73.14 55.797 73.26 55.757 73.38L54.927 73.5L56.247 77.93C56.4137 78.53 56.557 79.0933 56.677 79.62H56.697C56.8304 79.18 57.0237 78.6167 57.277 77.93L58.377 74.89L57.897 73.48L57.087 73.38C57.0604 73.28 57.0604 73.1567 57.087 73.01C57.4537 73.0367 57.917 73.05 58.477 73.05C58.9837 73.05 59.4537 73.04 59.887 73.02C59.927 73.14 59.927 73.26 59.887 73.38L59.057 73.5L60.477 77.85C60.697 78.57 60.8504 79.1333 60.937 79.54ZM66.5734 79.38V73.48L65.7634 73.37C65.7234 73.25 65.7234 73.13 65.7634 73.01L67.1334 73.04H71.1734L71.1834 75.36C71.0367 75.3867 70.9134 75.3867 70.8134 75.36L70.3434 73.55H67.6434V76.55L69.2434 76.52L69.4734 75.54C69.5734 75.5133 69.6967 75.5133 69.8434 75.54C69.8167 75.9133 69.8034 76.3433 69.8034 76.83C69.8034 77.2767 69.8134 77.71 69.8334 78.13C69.7134 78.17 69.5934 78.17 69.4734 78.13L69.2534 77.09L67.6434 77.06V80.49H70.6434L71.1134 78.68C71.2134 78.6533 71.3367 78.6533 71.4834 78.68L71.4734 81H67.1334L65.7034 81.03C65.6634 80.91 65.6634 80.79 65.7034 80.67L66.5334 80.56C66.56 80.22 66.5734 79.8267 66.5734 79.38ZM83.8614 78.32V74.7C83.8614 74.1733 83.8481 73.7833 83.8214 73.53L82.8914 73.41C82.8514 73.29 82.8514 73.17 82.8914 73.05C83.3114 73.07 83.7181 73.08 84.1114 73.08C84.5447 73.08 84.9481 73.0667 85.3214 73.04C85.3481 73.1867 85.3481 73.31 85.3214 73.41L84.4114 73.51V81H83.8814L79.4714 75.03C79.2647 74.7567 79.0214 74.4 78.7414 73.96C78.7747 74.2667 78.7914 74.6367 78.7914 75.07V79.37C78.7914 79.8967 78.8047 80.2867 78.8314 80.54L79.7614 80.66C79.8014 80.78 79.8014 80.9 79.7614 81.02C79.1881 81.0067 78.7814 81 78.5414 81C78.1481 81 77.7447 81.01 77.3314 81.03C77.3047 80.8833 77.3047 80.76 77.3314 80.66L78.2414 80.56V74.67C78.2414 74.1433 78.2281 73.7533 78.2014 73.5L77.3714 73.38C77.3314 73.2667 77.3314 73.1533 77.3714 73.04H79.3314L83.3414 78.5C83.3947 78.5733 83.4514 78.66 83.5114 78.76C83.5781 78.86 83.6481 78.98 83.7214 79.12C83.8014 79.26 83.8647 79.3667 83.9114 79.44C83.8781 79.04 83.8614 78.6667 83.8614 78.32ZM88.2202 79.38V73.48L87.4102 73.37C87.3702 73.25 87.3702 73.13 87.4102 73.01L88.7802 73.04H92.8202L92.8302 75.36C92.6836 75.3867 92.5602 75.3867 92.4602 75.36L91.9902 73.55H89.2902V76.55L90.8902 76.52L91.1202 75.54C91.2202 75.5133 91.3436 75.5133 91.4902 75.54C91.4636 75.9133 91.4502 76.3433 91.4502 76.83C91.4502 77.2767 91.4602 77.71 91.4802 78.13C91.3602 78.17 91.2402 78.17 91.1202 78.13L90.9002 77.09L89.2902 77.06V80.49H92.2902L92.7602 78.68C92.8602 78.6533 92.9836 78.6533 93.1302 78.68L93.1202 81H88.7802L87.3502 81.03C87.3102 80.91 87.3102 80.79 87.3502 80.67L88.1802 80.56C88.2069 80.22 88.2202 79.8267 88.2202 79.38ZM96.2073 79.38V73.48L95.3973 73.37C95.3573 73.25 95.3573 73.13 95.3973 73.01L96.7673 73.04H100.807L100.817 75.36C100.671 75.3867 100.547 75.3867 100.447 75.36L99.9774 73.55H97.2773V76.55L98.8773 76.52L99.1073 75.54C99.2074 75.5133 99.3307 75.5133 99.4773 75.54C99.4507 75.9133 99.4374 76.3433 99.4374 76.83C99.4374 77.2767 99.4474 77.71 99.4674 78.13C99.3474 78.17 99.2273 78.17 99.1073 78.13L98.8874 77.09L97.2773 77.06V80.49H100.277L100.747 78.68C100.847 78.6533 100.971 78.6533 101.117 78.68L101.107 81H96.7673L95.3373 81.03C95.2973 80.91 95.2973 80.79 95.3373 80.67L96.1673 80.56C96.194 80.22 96.2073 79.8267 96.2073 79.38ZM103.324 81.02C103.284 80.9 103.284 80.78 103.324 80.66L104.154 80.54C104.181 80.2867 104.194 79.8967 104.194 79.37V73.48L103.384 73.38C103.358 73.28 103.358 73.1567 103.384 73.01C103.484 73.0167 103.641 73.02 103.854 73.02C104.281 73.02 104.831 73.0033 105.504 72.97C106.184 72.93 106.574 72.91 106.674 72.91C107.981 72.91 108.971 73.2633 109.644 73.97C110.318 74.6767 110.654 75.6267 110.654 76.82C110.654 78.0333 110.338 79.04 109.704 79.84C109.071 80.64 108.184 81.04 107.044 81.04C106.664 81.04 106.161 81.0333 105.534 81.02C104.908 81.0133 104.458 81.01 104.184 81.01C103.798 81.01 103.511 81.0133 103.324 81.02ZM106.664 80.56C108.544 80.56 109.484 79.3333 109.484 76.88C109.484 75.82 109.238 74.9833 108.744 74.37C108.258 73.7567 107.554 73.43 106.634 73.39C106.554 73.3833 106.431 73.38 106.264 73.38C105.911 73.38 105.591 73.4067 105.304 73.46C105.278 73.7133 105.264 74.1167 105.264 74.67V80.53C105.344 80.53 105.534 80.5367 105.834 80.55C106.141 80.5567 106.418 80.56 106.664 80.56ZM117.405 79.38V73.48L116.595 73.37C116.555 73.25 116.555 73.13 116.595 73.01L117.965 73.04H122.005L122.015 75.36C121.868 75.3867 121.745 75.3867 121.645 75.36L121.175 73.55H118.475V76.55L120.075 76.52L120.305 75.54C120.405 75.5133 120.528 75.5133 120.675 75.54C120.648 75.9133 120.635 76.3433 120.635 76.83C120.635 77.2767 120.645 77.71 120.665 78.13C120.545 78.17 120.425 78.17 120.305 78.13L120.085 77.09L118.475 77.06V80.49H121.475L121.945 78.68C122.045 78.6533 122.168 78.6533 122.315 78.68L122.305 81H117.965L116.535 81.03C116.495 80.91 116.495 80.79 116.535 80.67L117.365 80.56C117.392 80.22 117.405 79.8267 117.405 79.38ZM127.41 77.55H124.44C124.38 77.35 124.38 77.1833 124.44 77.05H127.41C127.463 77.2033 127.463 77.37 127.41 77.55ZM130.925 80.31C131.312 80.5767 131.855 80.71 132.555 80.71C133.029 80.71 133.382 80.5733 133.615 80.3C133.855 80.0267 133.975 79.7 133.975 79.32C133.975 79.12 133.959 78.9533 133.925 78.82C133.892 78.68 133.819 78.5233 133.705 78.35C133.599 78.1767 133.425 78.0033 133.185 77.83C132.945 77.6567 132.632 77.4733 132.245 77.28C131.792 77.0533 131.425 76.84 131.145 76.64C130.865 76.44 130.655 76.2333 130.515 76.02C130.375 75.8067 130.282 75.6033 130.235 75.41C130.189 75.2167 130.165 74.9767 130.165 74.69C130.165 74.1033 130.399 73.65 130.865 73.33C131.339 73.0033 131.895 72.84 132.535 72.84C133.329 72.84 134.095 73.04 134.835 73.44V75.36C134.609 75.4 134.419 75.4 134.265 75.36L133.945 73.63C133.519 73.3967 133.042 73.28 132.515 73.28C132.162 73.28 131.862 73.3867 131.615 73.6C131.375 73.8067 131.255 74.1 131.255 74.48C131.255 74.6933 131.269 74.86 131.295 74.98C131.322 75.1 131.389 75.2433 131.495 75.41C131.602 75.57 131.779 75.7333 132.025 75.9C132.272 76.06 132.602 76.24 133.015 76.44C134.442 77.1333 135.155 77.96 135.155 78.92C135.155 79.6 134.895 80.15 134.375 80.57C133.855 80.99 133.175 81.2 132.335 81.2C131.502 81.2 130.735 81.0033 130.035 80.61V78.69C130.262 78.65 130.452 78.65 130.605 78.69L130.925 80.31ZM138.359 79.38V73.48L137.549 73.37C137.509 73.25 137.509 73.13 137.549 73.01L138.919 73.04H142.959L142.969 75.36C142.822 75.3867 142.699 75.3867 142.599 75.36L142.129 73.55H139.429V76.55L141.029 76.52L141.259 75.54C141.359 75.5133 141.482 75.5133 141.629 75.54C141.602 75.9133 141.589 76.3433 141.589 76.83C141.589 77.2767 141.599 77.71 141.619 78.13C141.499 78.17 141.379 78.17 141.259 78.13L141.039 77.09L139.429 77.06V80.49H142.429L142.899 78.68C142.999 78.6533 143.122 78.6533 143.269 78.68L143.259 81H138.919L137.489 81.03C137.449 80.91 137.449 80.79 137.489 80.67L138.319 80.56C138.345 80.22 138.359 79.8267 138.359 79.38ZM145.536 73.01C145.809 73.01 146.242 72.9967 146.836 72.97C147.436 72.9433 147.979 72.93 148.466 72.93C149.479 72.93 150.202 73.1333 150.636 73.54C151.069 73.94 151.286 74.5 151.286 75.22C151.286 75.6533 151.136 76.0433 150.836 76.39C150.536 76.7367 150.142 76.9967 149.656 77.17C149.942 77.6567 150.209 78.1133 150.456 78.54C150.709 78.9667 150.892 79.2833 151.006 79.49C151.119 79.6967 151.222 79.8833 151.316 80.05C151.409 80.21 151.476 80.32 151.516 80.38C151.562 80.44 151.606 80.49 151.646 80.53L152.366 80.63C152.392 80.73 152.392 80.8533 152.366 81H150.666L149.156 78.26C148.956 77.88 148.766 77.5867 148.586 77.38H148.446C148.106 77.38 147.762 77.36 147.416 77.32V80.56L148.326 80.66C148.352 80.76 148.352 80.8833 148.326 81.03C147.906 81.01 147.432 81 146.906 81C146.512 81 146.036 81.0067 145.476 81.02C145.436 80.9 145.436 80.78 145.476 80.66L146.306 80.54C146.332 80.2867 146.346 79.8967 146.346 79.37V73.48L145.536 73.38C145.509 73.28 145.509 73.1567 145.536 73.01ZM147.416 74.67V76.91C147.622 76.9367 147.922 76.95 148.316 76.95C148.656 76.95 148.946 76.8967 149.186 76.79C149.432 76.6767 149.616 76.53 149.736 76.35C149.856 76.1633 149.942 75.9733 149.996 75.78C150.049 75.5867 150.076 75.3833 150.076 75.17C150.076 74.5967 149.932 74.15 149.646 73.83C149.359 73.51 148.882 73.35 148.216 73.35C147.969 73.35 147.722 73.3733 147.476 73.42C147.436 73.8 147.416 74.2167 147.416 74.67ZM157.149 79.78H157.159C157.239 79.4667 157.369 79.0567 157.549 78.55L159.369 73.48L158.559 73.38C158.532 73.28 158.532 73.1567 158.559 73.01C158.926 73.0367 159.279 73.05 159.619 73.05C159.912 73.05 160.272 73.04 160.699 73.02C160.739 73.14 160.739 73.26 160.699 73.38L160.039 73.5C159.932 73.66 159.799 73.9567 159.639 74.39L157.059 81.3H156.709L153.749 73.48L152.939 73.38C152.912 73.28 152.912 73.1567 152.939 73.01C153.306 73.0367 153.779 73.05 154.359 73.05C154.879 73.05 155.356 73.04 155.789 73.02C155.829 73.14 155.829 73.26 155.789 73.38L154.959 73.5L156.789 78.55C156.929 78.9567 157.049 79.3667 157.149 79.78ZM164.21 74.67V80.56L165.02 80.66C165.047 80.76 165.047 80.8833 165.02 81.03C164.6 81.01 164.143 81 163.65 81C163.29 81 162.83 81.0067 162.27 81.02C162.23 80.9 162.23 80.78 162.27 80.66L163.1 80.54C163.127 80.2867 163.14 79.8967 163.14 79.37V73.48L162.33 73.38C162.303 73.28 162.303 73.1567 162.33 73.01C162.697 73.0367 163.153 73.05 163.7 73.05C164.187 73.05 164.647 73.04 165.08 73.02C165.12 73.14 165.12 73.26 165.08 73.38L164.25 73.5C164.223 73.7533 164.21 74.1433 164.21 74.67ZM173.613 79.52C173.726 79.5933 173.813 79.72 173.873 79.9C172.946 80.7667 172.006 81.2 171.053 81.2C170.399 81.2 169.829 81.0833 169.343 80.85C168.856 80.61 168.453 80.2967 168.133 79.91C167.813 79.5167 167.573 79.0733 167.413 78.58C167.259 78.08 167.183 77.57 167.183 77.05C167.183 76.5233 167.273 76.01 167.453 75.51C167.633 75.0033 167.896 74.5533 168.243 74.16C168.589 73.76 169.016 73.44 169.523 73.2C170.036 72.96 170.619 72.84 171.273 72.84C172.133 72.84 172.933 73.04 173.673 73.44V75.36C173.553 75.38 173.446 75.39 173.353 75.39C173.253 75.39 173.169 75.38 173.103 75.36L172.783 73.69C172.376 73.4233 171.833 73.29 171.153 73.29C170.733 73.29 170.353 73.3867 170.013 73.58C169.679 73.7667 169.393 74.0233 169.153 74.35C168.919 74.67 168.739 75.05 168.613 75.49C168.486 75.9233 168.423 76.3867 168.423 76.88C168.423 77.4067 168.483 77.8933 168.603 78.34C168.729 78.7867 168.906 79.1733 169.133 79.5C169.359 79.8267 169.633 80.0833 169.953 80.27C170.279 80.45 170.643 80.54 171.043 80.54C171.523 80.54 171.986 80.4467 172.433 80.26C172.879 80.0733 173.273 79.8267 173.613 79.52ZM176.79 79.38V73.48L175.98 73.37C175.94 73.25 175.94 73.13 175.98 73.01L177.35 73.04H181.39L181.4 75.36C181.253 75.3867 181.13 75.3867 181.03 75.36L180.56 73.55H177.86V76.55L179.46 76.52L179.69 75.54C179.79 75.5133 179.913 75.5133 180.06 75.54C180.033 75.9133 180.02 76.3433 180.02 76.83C180.02 77.2767 180.03 77.71 180.05 78.13C179.93 78.17 179.81 78.17 179.69 78.13L179.47 77.09L177.86 77.06V80.49H180.86L181.33 78.68C181.43 78.6533 181.553 78.6533 181.7 78.68L181.69 81H177.35L175.92 81.03C175.88 80.91 175.88 80.79 175.92 80.67L176.75 80.56C176.777 80.22 176.79 79.8267 176.79 79.38ZM185.077 80.31C185.464 80.5767 186.007 80.71 186.707 80.71C187.181 80.71 187.534 80.5733 187.767 80.3C188.007 80.0267 188.127 79.7 188.127 79.32C188.127 79.12 188.111 78.9533 188.077 78.82C188.044 78.68 187.971 78.5233 187.857 78.35C187.751 78.1767 187.577 78.0033 187.337 77.83C187.097 77.6567 186.784 77.4733 186.397 77.28C185.944 77.0533 185.577 76.84 185.297 76.64C185.017 76.44 184.807 76.2333 184.667 76.02C184.527 75.8067 184.434 75.6033 184.387 75.41C184.341 75.2167 184.317 74.9767 184.317 74.69C184.317 74.1033 184.551 73.65 185.017 73.33C185.491 73.0033 186.047 72.84 186.687 72.84C187.481 72.84 188.247 73.04 188.987 73.44V75.36C188.761 75.4 188.571 75.4 188.417 75.36L188.097 73.63C187.671 73.3967 187.194 73.28 186.667 73.28C186.314 73.28 186.014 73.3867 185.767 73.6C185.527 73.8067 185.407 74.1 185.407 74.48C185.407 74.6933 185.421 74.86 185.447 74.98C185.474 75.1 185.541 75.2433 185.647 75.41C185.754 75.57 185.931 75.7333 186.177 75.9C186.424 76.06 186.754 76.24 187.167 76.44C188.594 77.1333 189.307 77.96 189.307 78.92C189.307 79.6 189.047 80.15 188.527 80.57C188.007 80.99 187.327 81.2 186.487 81.2C185.654 81.2 184.887 81.0033 184.187 80.61V78.69C184.414 78.65 184.604 78.65 184.757 78.69L185.077 80.31Z" fill="#95D84D"/>
<path d="M171 20.4711L173.281 18L191 36.2527L173.281 54L171 51.5289L181.462 35.7473L171 20.4711Z" fill="white"/>
<path d="M151 20.4711L153.262 18L171 36.2527L153.262 54L151 51.5289L161.442 35.7473L151 20.4711Z" fill="white"/>
<path d="M56 20.4711L53.7384 18L36 36.2527L53.7384 54L56 51.5289L45.5575 35.7473L56 20.4711Z" fill="white"/>
<path d="M40 20.4711L37.7188 18L20 36.2527L37.7188 54L40 51.5289L29.5379 35.7473L40 20.4711Z" fill="white"/>
</svg>
